M48
;GenerationSoftware,Autodesk,EAGLE,9.6.2*%
;CreationDate,2023-02-10T13:01:25Z*%
FMAT,2
ICI,OFF
METRIC,TZ,000.000
T5C0.813
T4C0.914
T3C1.016
T2C1.118
T1C2.000
%
G90
M71
T1
X1778Y19812
X1524Y2286
X41148Y19304
X41910Y2794
T2
X5588Y16256
X15748Y16256
X18288Y4826
X18288Y14986
X6096Y3048
X16256Y3048
X3556Y4572
X3556Y14732
T3
X24892Y14986
X27432Y14986
X29972Y14986
T4
X35306Y11430
X37846Y11430
X9144Y8636
X11684Y8636
T5
X22606Y4826
X22606Y7366
X29464Y5080
X29464Y7620
X36830Y4826
X36830Y7366
M30